<svg width="64" height="64" viewBox="0 0 64 64" fill="none" xmlns="http://www.w3.org/2000/svg">
<path d="M49.9595 47.0795V34.5867C49.9595 27.8933 46.3851 24.7787 41.6235 24.7787C37.7792 24.7787 36.0555 26.8939 35.0965 28.3776V25.2907H27.8528C27.9488 27.3355 27.8528 47.0795 27.8528 47.0795H35.0965V34.9109C35.0965 34.2624 35.1424 33.6107 35.3355 33.1467C35.8581 31.8453 37.0485 30.4981 39.0485 30.4981C41.6715 30.4981 42.7179 32.496 42.7179 35.424V47.0827H49.9595V47.0795ZM20.2229 22.3168C22.7477 22.3168 24.3211 20.6421 24.3211 18.5504C24.2741 16.4139 22.7477 14.7872 20.2709 14.7872C17.7941 14.7872 16.1739 16.4128 16.1739 18.5504C16.1739 20.6421 17.7461 22.3168 20.1771 22.3168H20.2229ZM32 64C14.3275 64 0 49.6725 0 32C0 14.3264 14.3275 0 32 0C49.6725 0 64 14.3264 64 32C64 49.6725 49.6725 64 32 64ZM23.8443 47.0795V25.2907H16.6027V47.0795H23.8443Z" fill="#A39D1F"/>
</svg>
