<svg xmlns="http://www.w3.org/2000/svg" width="200" height="95" viewBox="0 0 200 95">
  <path fill="#ABAF2C" d="M0 50.6531584C0 42.1596155 2.52489331 35.7894583 7.57467994 31.5426868 12.6244666 26.8712382 19.778331 24.7478525 28.6154576 24.7478525 34.0860597 24.7478525 38.7150308 25.5972068 42.5023708 27.2959154 45.8688952 28.994624 47.972973 31.1180097 47.972973 34.5154269 47.972973 36.2141355 47.5521574 37.4881669 46.7105263 38.7621983 45.8688952 40.0362298 45.0272641 41.3102612 44.6064486 41.3102612 42.9231863 40.4609069 41.2399241 40.0362298 39.1358464 39.1868755 37.0317686 38.7621983 34.5068753 38.3375212 31.5611664 38.3375212 21.0407776 38.3375212 15.990991 43.8583241 15.990991 54.8999299L15.990991 93.9702273.841631105 93.9702273C0 94.3949045 0 50.6531584 0 50.6531584zM100.154101 74.0104014L74.4843528 74.0104014C67.3304884 74.0104014 62.2807018 72.73637 58.4933618 70.6129843 54.7060218 68.0649214 53.0227596 64.2428271 53.0227596 59.1467013 53.0227596 55.324607 53.8643907 51.0778356 55.5476529 46.8310641 57.2309151 42.5842926 59.3349929 38.3375212 62.2807018 34.0907497 65.2264106 29.8439783 68.1721195 26.0218839 71.9594595 21.7751125 75.7467994 17.9530182 79.5341394 14.555601 83.3214794 11.582861 87.1088193 8.61012096 91.3169749 6.48673523 95.1043148 4.3633495 98.8916548 2.66464092 102.678995 1.81528662 105.624704 1.81528662 108.570413 1.81528662 111.095306 2.23996377 112.778568 2.66464092 114.46183 3.51399521 115.303461 3.93867235 115.724277 3.93867235L115.724277 59.9960556 119.932432 59.9960556C125.403035 59.9960556 127.927928 62.1194414 127.927928 66.79089 127.927928 68.4895986 127.507112 70.1883071 127.086297 71.4623386 126.665481 72.73637 126.244666 73.5857243 125.82385 74.0104014L115.724277 74.0104014 115.724277 94.3949045 100.574917 94.3949045 100.154101 74.0104014zM100.154101 59.9960556L100.154101 17.528341C97.2083926 19.2270496 93.8418682 21.3504353 90.0545282 24.3231754 86.2671882 27.2959154 82.9006638 30.6933326 79.954955 34.0907497 77.0092461 37.4881669 74.0635372 41.3102612 71.9594595 45.1323555 69.8553817 48.9544498 69.0137506 51.9271899 69.0137506 54.8999299 69.0137506 57.0233156 69.8553817 58.7220242 71.5386439 59.1467013 73.2219061 59.5713785 75.3259839 59.9960556 77.8508772 59.9960556L100.154101 59.9960556zM134.534535 81.0044643C135.793486 80.15625 137.891738 78.8839286 140.40964 76.7633929L149.222299 70.4017857C152.579503 67.8571429 155.517056 65.7366071 158.874259 63.1919643 162.231462 60.6473214 164.749365 58.5267857 166.847617 56.40625 171.883422 51.7410714 176.079926 47.5 178.597829 43.2589286 181.535382 39.0178571 182.794333 34.7767857 182.794333 29.6875 182.794333 27.5669643 182.374682 25.4464286 181.535382 23.75 180.696081 21.6294643 179.437129 19.9330357 178.178178 18.6607143 176.499576 16.9642857 174.820975 16.1160714 172.303072 14.84375 169.78517 13.9955357 166.847617 13.5714286 163.490413 13.5714286 160.13321 13.5714286 157.195657 13.9955357 154.677755 14.84375 152.159852 15.6919643 150.0616 16.9642857 148.382998 18.2366071 146.704397 19.5089286 145.445445 20.78125 144.606145 22.4776786 143.766844 23.75 142.927543 25.0223214 142.507893 25.8705357 141.668592 25.8705357 140.829291 25.4464286 139.98999 25.0223214 139.150689 24.5982143 138.311388 24.1741071 137.472087 23.3258929 136.632787 22.4776786 135.793486 21.6294643 135.373835 20.78125 134.954185 19.9330357 134.534535 18.6607143 134.534535 17.8125 134.534535 16.5401786 134.954185 15.2678571 135.373835 13.9955357 135.793486 12.7232143 136.632787 11.875 137.052437 10.6026786 137.472087 10.1785714 138.311388 8.90625 139.57034 7.63392857 140.829291 6.36160714 142.507893 5.08928571 145.025795 4.24107143 147.124047 2.96875 150.0616 2.12053571 153.418803 1.27232143 156.776007.424107143 160.552861 0 165.169015 0 170.624471 0 175.660276.848214286 179.85678 2.12053571 184.053284 3.81696429 187.830138 5.51339286 190.767691 8.05803571 193.705244 10.6026786 195.803496 13.5714286 197.482097 17.3883929 199.160699 20.78125 199.58035 24.5982143 199.58035 28.8392857 199.58035 31.8080357 199.160699 34.7767857 198.321398 37.7455357 197.482097 40.7142857 196.642797 42.8348214 195.383845 45.3794643 194.124894 47.9241071 192.865943 49.6205357 191.606992 51.7410714 189.92839 53.8616071 188.669439 55.5580357 186.990837 57.2544643 185.312235 58.9508929 183.213983 61.0714286 180.696081 63.1919643 178.178178 65.7366071 175.240625 67.8571429 172.303072 70.4017857 169.365519 72.9464286 166.847617 75.0669643 164.329714 76.7633929 161.811812 78.8839286 159.71356 80.15625 158.454608 81.0044643L200 81.0044643 200 95 134.534535 95 134.534535 81.0044643z"/>
</svg>
