<svg width="2300" height="750" viewBox="0 0 2300 750" fill="none" xmlns="http://www.w3.org/2000/svg">
<mask id="mask0" mask-type="alpha" maskUnits="userSpaceOnUse" x="0" y="0" width="2300" height="750">
<rect width="2300" height="750" fill="url(#paint0_linear)"/>
</mask>
<g mask="url(#mask0)">
<rect width="2300" height="751" fill="url(#paint1_linear)"/>
<path opacity="0.1" d="M1151.52 1319.17C1564.98 1319.17 1900.15 984.091 1900.15 570.755C1900.15 157.418 1564.98 -177.657 1151.52 -177.657C738.058 -177.657 402.881 157.418 402.881 570.755C402.881 984.091 738.058 1319.17 1151.52 1319.17Z" fill="#CCCCCC" stroke="black" stroke-width="0.2"/>
<path opacity="0.9" d="M1151.52 143.654C1264.83 143.654 1373.49 188.652 1453.61 268.749C1533.74 348.846 1578.75 457.481 1578.75 570.755C1578.75 684.029 1533.74 792.664 1453.61 872.761C1373.49 952.858 1264.83 997.856 1151.52 997.856C1038.21 997.856 929.543 952.858 849.422 872.761C769.301 792.664 724.289 684.029 724.289 570.755C724.289 457.481 769.301 348.846 849.422 268.749C929.543 188.652 1038.21 143.654 1151.52 143.654ZM1151.52 205.42C1054.6 205.42 961.644 243.91 893.109 312.424C824.575 380.937 786.073 473.862 786.073 570.755C786.073 667.648 824.575 760.572 893.109 829.086C961.644 897.6 1054.6 936.09 1151.52 936.09C1248.44 936.09 1341.39 897.6 1409.93 829.086C1478.46 760.572 1516.96 667.648 1516.96 570.755C1516.96 473.862 1478.46 380.937 1409.93 312.424C1341.39 243.91 1248.44 205.42 1151.52 205.42Z" fill="white"/>
<path opacity="0.9" d="M1151.52 865.783C1314.51 865.783 1446.63 733.694 1446.63 570.755C1446.63 407.815 1314.51 275.727 1151.52 275.727C988.53 275.727 856.401 407.815 856.401 570.755C856.401 733.694 988.53 865.783 1151.52 865.783Z" fill="white"/>
<path opacity="0.5" d="M1538.79 492.852C1542.31 492.852 1545.16 490 1545.16 486.482C1545.16 482.964 1542.31 480.112 1538.79 480.112C1535.27 480.112 1532.42 482.964 1532.42 486.482C1532.42 490 1535.27 492.852 1538.79 492.852Z" fill="#66B3D5"/>
<path opacity="0.5" d="M1540.13 656.94C1544.73 656.94 1548.46 653.212 1548.46 648.612C1548.46 644.012 1544.73 640.284 1540.13 640.284C1535.53 640.284 1531.8 644.012 1531.8 648.612C1531.8 653.212 1535.53 656.94 1540.13 656.94Z" fill="#9ED8F2"/>
<path opacity="0.5" d="M1533.75 686.979C1540.09 686.979 1545.23 681.842 1545.23 675.504C1545.23 669.166 1540.09 664.029 1533.75 664.029C1527.41 664.029 1522.27 669.166 1522.27 675.504C1522.27 681.842 1527.41 686.979 1533.75 686.979Z" fill="#2689B4"/>
<path opacity="0.5" d="M1526.08 711.002C1532.01 711.002 1536.82 706.198 1536.82 700.272C1536.82 694.345 1532.01 689.541 1526.08 689.541C1520.15 689.541 1515.35 694.345 1515.35 700.272C1515.35 706.198 1520.15 711.002 1526.08 711.002Z" fill="#6AB5D6"/>
<path opacity="0.5" d="M1523.59 715.403C1528.1 715.403 1531.75 711.753 1531.75 707.251C1531.75 702.749 1528.1 699.099 1523.59 699.099C1519.09 699.099 1515.44 702.749 1515.44 707.251C1515.44 711.753 1519.09 715.403 1523.59 715.403Z" fill="#8ECDE9"/>
<path opacity="0.5" d="M1515.35 738.134C1521.01 738.134 1525.6 733.549 1525.6 727.892C1525.6 722.236 1521.01 717.65 1515.35 717.65C1509.7 717.65 1505.11 722.236 1505.11 727.892C1505.11 733.549 1509.7 738.134 1515.35 738.134Z" fill="#81C5E2"/>
<path opacity="0.5" d="M1503.64 763.077C1509.42 763.077 1514.11 758.392 1514.11 752.612C1514.11 746.832 1509.42 742.146 1503.64 742.146C1497.86 742.146 1493.17 746.832 1493.17 752.612C1493.17 758.392 1497.86 763.077 1503.64 763.077Z" fill="#3F99C0"/>
<path opacity="0.5" d="M793.081 751.896C799.743 751.896 805.144 746.497 805.144 739.838C805.144 733.178 799.743 727.779 793.081 727.779C786.42 727.779 781.019 733.178 781.019 739.838C781.019 746.497 786.42 751.896 793.081 751.896Z" fill="#5CADD0"/>
<path opacity="0.5" d="M787.683 738.917C793.774 738.917 798.712 733.981 798.712 727.892C798.712 721.803 793.774 716.867 787.683 716.867C781.592 716.867 776.654 721.803 776.654 727.892C776.654 733.981 781.592 738.917 787.683 738.917Z" fill="#66B3D5"/>
<path opacity="0.5" d="M779.836 719.916C786.243 719.916 791.436 714.725 791.436 708.32C791.436 701.916 786.243 696.724 779.836 696.724C773.43 696.724 768.237 701.916 768.237 708.32C768.237 714.725 773.43 719.916 779.836 719.916Z" fill="#70BADA"/>
<path opacity="0.5" d="M760.592 640.265C762.948 640.265 764.858 638.355 764.858 636C764.858 633.644 762.948 631.734 760.592 631.734C758.235 631.734 756.325 633.644 756.325 636C756.325 638.355 758.235 640.265 760.592 640.265Z" fill="#95D2EC"/>
<path opacity="0.5" d="M755.939 599.633C758.362 599.633 760.327 597.669 760.327 595.247C760.327 592.824 758.362 590.861 755.939 590.861C753.516 590.861 751.552 592.824 751.552 595.247C751.552 597.669 753.516 599.633 755.939 599.633Z" fill="#449CC3"/>
<path opacity="0.5" d="M755.191 573.575C758.324 573.575 760.863 571.037 760.863 567.905C760.863 564.774 758.324 562.235 755.191 562.235C752.059 562.235 749.519 564.774 749.519 567.905C749.519 571.037 752.059 573.575 755.191 573.575Z" fill="#3D98BF"/>
<path opacity="0.5" d="M756.398 550.559C762.384 550.559 767.236 545.709 767.236 539.725C767.236 533.741 762.384 528.89 756.398 528.89C750.413 528.89 745.561 533.741 745.561 539.725C745.561 545.709 750.413 550.559 756.398 550.559Z" fill="#7FC4E1"/>
<path opacity="0.5" d="M758.352 531.728C764.426 531.728 769.35 526.806 769.35 520.734C769.35 514.662 764.426 509.74 758.352 509.74C752.278 509.74 747.355 514.662 747.355 520.734C747.355 526.806 752.278 531.728 758.352 531.728Z" fill="#449CC3"/>
<path opacity="0.5" d="M761.622 509.523C767.096 509.523 771.533 505.087 771.533 499.615C771.533 494.143 767.096 489.707 761.622 489.707C756.148 489.707 751.711 494.143 751.711 499.615C751.711 505.087 756.148 509.523 761.622 509.523Z" fill="#5EAED0"/>
<path opacity="0.5" d="M764.371 497.599C770.82 497.599 776.048 492.372 776.048 485.925C776.048 479.478 770.82 474.252 764.371 474.252C757.922 474.252 752.695 479.478 752.695 485.925C752.695 492.372 757.922 497.599 764.371 497.599Z" fill="#1C82AE"/>
<path opacity="0.5" d="M769.207 477.347C775.321 477.347 780.277 472.392 780.277 466.281C780.277 460.169 775.321 455.214 769.207 455.214C763.094 455.214 758.138 460.169 758.138 466.281C758.138 472.392 763.094 477.347 769.207 477.347Z" fill="#58AACD"/>
<path opacity="0.5" d="M774.951 458.701C781.316 458.701 786.476 453.542 786.476 447.179C786.476 440.816 781.316 435.657 774.951 435.657C768.586 435.657 763.426 440.816 763.426 447.179C763.426 453.542 768.586 458.701 774.951 458.701Z" fill="#0070A0"/>
<path opacity="0.5" d="M779.639 445.547C786.171 445.547 791.466 440.254 791.466 433.724C791.466 427.194 786.171 421.901 779.639 421.901C773.107 421.901 767.812 427.194 767.812 433.724C767.812 440.254 773.107 445.547 779.639 445.547Z" fill="#7AC0DF"/>
<path opacity="0.5" d="M802.047 395.207C808.319 395.207 813.404 390.124 813.404 383.853C813.404 377.583 808.319 372.5 802.047 372.5C795.775 372.5 790.69 377.583 790.69 383.853C790.69 390.124 795.775 395.207 802.047 395.207Z" fill="#54A7CB"/>
<path opacity="0.5" d="M912.966 260.585C916.414 260.585 919.208 257.791 919.208 254.344C919.208 250.897 916.414 248.103 912.966 248.103C909.518 248.103 906.724 250.897 906.724 254.344C906.724 257.791 909.518 260.585 912.966 260.585Z" fill="#70BADA"/>
<path d="M1644.03 459.146C1644.67 461.963 1645.28 464.786 1645.87 467.614L1585.18 480.277C1584.66 477.796 1584.12 475.32 1583.56 472.848L1644.03 459.146Z" fill="#F17B48"/>
<path d="M1696.43 675.071C1695.83 678.189 1695.21 681.301 1694.56 684.407L1585.12 661.503C1585.64 659.023 1586.14 656.538 1586.62 654.049L1696.43 675.071Z" fill="#EE875A"/>
<path d="M1644.96 701.438C1644.21 704.261 1643.44 707.077 1642.65 709.887L1577.74 691.499C1578.43 689.061 1579.1 686.617 1579.75 684.167L1644.96 701.438Z" fill="#CCCCCC"/>
<path d="M1679.62 748.301C1678.6 751.322 1677.56 754.335 1676.49 757.338L1568.93 719.109C1569.78 716.721 1570.6 714.326 1571.41 711.924L1679.62 748.301Z" fill="#F37037"/>
<path d="M1715.38 772.133C1714.22 775.359 1713.04 778.574 1711.84 781.78L1566.08 726.886C1566.97 724.514 1567.85 722.135 1568.7 719.748L1715.38 772.133Z" fill="#EB936E"/>
<path d="M1656.78 783.846C1655.56 786.737 1654.31 789.617 1653.04 792.486L1556.67 749.878C1557.7 747.56 1558.7 745.233 1559.69 742.898L1656.78 783.846Z" fill="#F46E35"/>
<path d="M595.548 816.557C594.141 813.376 592.761 810.183 591.409 806.979L743.35 742.898C744.336 745.233 745.341 747.56 746.366 749.878L595.548 816.557Z" fill="#F17946"/>
<path d="M606.721 777.726C605.536 774.609 604.378 771.483 603.247 768.346L734.768 720.947C735.628 723.331 736.508 725.708 737.408 728.077L606.721 777.726Z" fill="#F27844"/>
<path d="M595.265 668.506C594.705 665.324 594.173 662.137 593.668 658.946L713.952 639.93C714.348 642.433 714.765 644.933 715.204 647.429L595.265 668.506Z" fill="#CCCCCC"/>
<path d="M550.014 613.181C549.771 609.74 549.558 606.297 549.374 602.852L709.143 594.335C709.278 596.866 709.435 599.396 709.613 601.924L550.014 613.181Z" fill="#CCCCCC"/>
<path d="M522.85 571.629C522.845 568.033 522.871 564.436 522.928 560.84L708.57 563.768C708.53 566.302 708.511 568.837 708.515 571.371L522.85 571.629Z" fill="#CCCCCC"/>
<path d="M595.917 531.915C596.139 528.737 596.388 525.561 596.665 522.386L710.189 532.283C709.969 534.807 709.77 537.334 709.594 539.862L595.917 531.915Z" fill="#F85B18"/>
<path d="M516.264 495.467C516.695 491.833 517.157 488.203 517.65 484.577L712.555 511.075C712.214 513.586 711.894 516.1 711.595 518.617L516.264 495.467Z" fill="#FC4D02"/>
<path d="M581.384 471.776C581.951 468.515 582.545 465.258 583.168 462.007L716.412 487.502C715.936 489.991 715.481 492.484 715.047 494.981L581.384 471.776Z" fill="#F3723A"/>
<path d="M575.625 449.738C576.318 446.443 577.039 443.155 577.788 439.872L719.617 472.227C719.053 474.698 718.51 477.174 717.989 479.654L575.625 449.738Z" fill="#F46D33"/>
<path d="M561.791 415.026C562.682 411.652 563.602 408.286 564.552 404.928L725.211 450.317C724.521 452.755 723.853 455.2 723.205 457.65L561.791 415.026Z" fill="#F46C32"/>
<path d="M471.075 353.908C472.316 350.015 473.591 346.133 474.899 342.263L731.814 429.022C731.002 431.423 730.212 433.831 729.442 436.245L471.075 353.908Z" fill="#FA540D"/>
<path d="M577.281 364.738C578.46 361.453 579.668 358.179 580.903 354.914L737.182 414.028C736.285 416.399 735.408 418.776 734.552 421.162L577.281 364.738Z" fill="#CCCCCC"/>
<path d="M639.492 302.542C641.028 299.613 642.588 296.697 644.173 293.795L762.707 358.503C761.492 360.727 760.296 362.961 759.12 365.206L639.492 302.542Z" fill="#CCCCCC"/>
<path d="M849.33 177.015C851.584 175.287 853.852 173.577 856.136 171.888L887.924 214.813C885.887 216.321 883.862 217.847 881.851 219.389L849.33 177.015Z" fill="#CCCCCC"/>
<path opacity="0.8" d="M1495.1 492.895C1495.55 494.86 1495.98 496.829 1496.39 498.802L1453.28 507.796C1452.92 506.07 1452.54 504.347 1452.15 502.627L1495.1 492.895Z" fill="#2A82BF"/>
<path opacity="0.8" d="M1497.53 636.995C1497.15 638.974 1496.76 640.95 1496.34 642.923L1453.24 633.902C1453.6 632.176 1453.95 630.447 1454.28 628.715L1497.53 636.995Z" fill="#7E4E7C"/>
<path opacity="0.8" d="M1485.44 683.02C1484.8 684.93 1484.14 686.835 1483.46 688.734L1441.97 673.986C1442.56 672.325 1443.14 670.658 1443.7 668.987L1485.44 683.02Z" fill="#3B78B1"/>
<path opacity="0.8" d="M1483.28 689.242C1482.6 691.14 1481.91 693.032 1481.2 694.918L1439.99 679.398C1440.61 677.747 1441.22 676.092 1441.81 674.431L1483.28 689.242Z" fill="#8E446E"/>
<path opacity="0.8" d="M1476.11 707.652C1475.33 709.509 1474.53 711.359 1473.72 713.203L1433.44 695.397C1434.15 693.784 1434.85 692.165 1435.54 690.54L1476.11 707.652Z" fill="#4372AA"/>
<path opacity="0.8" d="M1465.89 729.714C1464.98 731.512 1464.06 733.303 1463.12 735.085L1424.17 714.544C1424.99 712.984 1425.8 711.417 1426.6 709.844L1465.89 729.714Z" fill="#3B78B1"/>
<path opacity="0.8" d="M1451.68 755.135C1450.63 756.852 1449.56 758.56 1448.47 760.259L1411.35 736.571C1412.3 735.085 1413.24 733.59 1414.16 732.088L1451.68 755.135Z" fill="#645E90"/>
<path opacity="0.8" d="M1448.86 759.646C1447.78 761.347 1446.69 763.039 1445.57 764.721L1408.82 740.475C1409.79 739.003 1410.75 737.523 1411.69 736.035L1448.86 759.646Z" fill="#6D5889"/>
<path opacity="0.8" d="M1444.72 766.015C1443.6 767.693 1442.47 769.36 1441.32 771.018L1405.1 745.985C1406.1 744.535 1407.09 743.075 1408.07 741.608L1444.72 766.015Z" fill="#A7345A"/>
<path opacity="0.8" d="M864.627 775.165C863.457 773.524 862.301 771.873 861.16 770.212L897.454 745.279C898.453 746.733 899.465 748.178 900.489 749.614L864.627 775.165Z" fill="#C02446"/>
<path opacity="0.8" d="M861.572 770.81C860.427 769.151 859.296 767.483 858.179 765.805L894.847 741.423C895.824 742.892 896.813 744.352 897.815 745.803L861.572 770.81Z" fill="#C02446"/>
<path opacity="0.8" d="M848.975 751.207C847.942 749.476 846.924 747.736 845.921 745.988L884.12 724.084C884.998 725.613 885.889 727.136 886.793 728.65L848.975 751.207Z" fill="#8E446E"/>
<path opacity="0.8" d="M845.151 744.639C844.155 742.886 843.175 741.125 842.21 739.356L880.873 718.281C881.718 719.829 882.576 721.37 883.447 722.904L845.151 744.639Z" fill="#B02F53"/>
<path opacity="0.8" d="M834.21 723.779C833.334 721.964 832.474 720.141 831.629 718.311L871.615 699.867C872.354 701.468 873.107 703.063 873.874 704.651L834.21 723.779Z" fill="#9F3961"/>
<path opacity="0.8" d="M829.32 713.203C828.505 711.359 827.705 709.509 826.922 707.652L867.496 690.54C868.182 692.165 868.882 693.784 869.595 695.397L829.32 713.203Z" fill="#8E446E"/>
<path opacity="0.8" d="M822.196 695.866C821.48 693.982 820.78 692.092 820.097 690.196L861.524 675.266C862.122 676.925 862.735 678.579 863.361 680.227L822.196 695.866Z" fill="#864975"/>
<path opacity="0.8" d="M804.539 631.73C804.19 629.745 803.858 627.757 803.543 625.766L847.04 618.89C847.315 620.632 847.606 622.371 847.911 624.108L804.539 631.73Z" fill="#A7345A"/>
<path opacity="0.8" d="M800.092 595.542C799.95 593.532 799.826 591.52 799.718 589.507L843.693 587.163C843.787 588.924 843.896 590.684 844.02 592.444L800.092 595.542Z" fill="#C91F3F"/>
<path opacity="0.8" d="M799.219 571.245C799.216 569.229 799.231 567.214 799.262 565.199L843.294 565.893C843.266 567.657 843.254 569.42 843.256 571.184L799.219 571.245Z" fill="#A7345A"/>
<path opacity="0.8" d="M800.077 546.187C800.217 544.177 800.375 542.168 800.55 540.16L844.421 543.984C844.268 545.741 844.13 547.499 844.007 549.258L800.077 546.187Z" fill="#54689D"/>
<path opacity="0.8" d="M801.668 529.292C801.906 527.291 802.16 525.291 802.432 523.294L846.068 529.227C845.83 530.974 845.607 532.724 845.4 534.475L801.668 529.292Z" fill="#5C6396"/>
<path opacity="0.8" d="M804.414 510.496C804.759 508.51 805.12 506.527 805.499 504.548L848.752 512.824C848.42 514.556 848.103 516.29 847.802 518.028L804.414 510.496Z" fill="#864975"/>
<path opacity="0.8" d="M806.753 498.306C807.168 496.334 807.599 494.365 808.048 492.401L850.982 502.195C850.589 503.914 850.211 505.637 849.849 507.362L806.753 498.306Z" fill="#6D5889"/>
<path opacity="0.8" d="M810.901 480.808C811.416 478.86 811.948 476.916 812.496 474.976L854.874 486.949C854.394 488.646 853.929 490.347 853.479 492.052L810.901 480.808Z" fill="#645E90"/>
<path opacity="0.8" d="M815.861 463.786C816.473 461.866 817.102 459.951 817.747 458.041L859.469 472.131C858.904 473.801 858.354 475.477 857.818 477.157L815.861 463.786Z" fill="#327DB8"/>
<path opacity="0.8" d="M819.925 451.791C820.606 449.894 821.303 448.003 822.017 446.118L863.204 461.697C862.58 463.347 861.97 465.001 861.374 466.661L819.925 451.791Z" fill="#645E90"/>
<path opacity="0.8" d="M839.462 407.292C840.398 405.507 841.349 403.73 842.315 401.961L880.966 423.06C880.12 424.608 879.288 426.163 878.469 427.725L839.462 407.292Z" fill="#755382"/>
<path opacity="0.8" d="M937.065 291.331C938.664 290.104 940.274 288.891 941.895 287.692L968.098 323.074C966.68 324.124 965.271 325.185 963.872 326.259L937.065 291.331Z" fill="#009CE0"/>
<path opacity="0.5" d="M1929.38 394.482C1930.39 398.932 1931.36 403.39 1932.29 407.857L1886.94 417.319C1886.06 413.112 1885.15 408.912 1884.2 404.721L1929.38 394.482Z" fill="black"/>
<path opacity="0.5" d="M1905.88 715.168C1905.06 719.484 1904.19 723.792 1903.29 728.093L1886.84 724.65C1887.72 720.444 1888.57 716.23 1889.38 712.009L1905.88 715.168Z" fill="black"/>
<path opacity="0.5" d="M398.497 703.084C397.74 698.776 397.019 694.462 396.336 690.142L409.473 688.065C410.145 692.31 410.853 696.549 411.597 700.782L398.497 703.084Z" fill="black"/>
<path opacity="0.5" d="M365.118 626.222C364.8 621.723 364.521 617.222 364.281 612.718L401.318 610.744C401.547 615.035 401.813 619.325 402.115 623.612L365.118 626.222Z" fill="black"/>
<path opacity="0.5" d="M350.632 571.869C350.626 567.287 350.659 562.706 350.731 558.125L400.346 558.907C400.278 563.204 400.247 567.502 400.253 571.8L350.632 571.869Z" fill="black"/>
<path opacity="0.5" d="M389.556 517.49C389.86 513.131 390.203 508.775 390.582 504.422L403.092 505.512C402.719 509.794 402.382 514.078 402.082 518.366L389.556 517.49Z" fill="black"/>
<path opacity="0.5" d="M380.879 479.422C381.401 475.013 381.962 470.609 382.561 466.21L407.105 469.547C406.526 473.806 405.983 478.069 405.477 482.337L380.879 479.422Z" fill="black"/>
<path opacity="0.5" d="M391.529 438.817C392.284 434.469 393.077 430.128 393.907 425.794L413.646 429.571C412.838 433.792 412.066 438.02 411.33 442.254L391.529 438.817Z" fill="black"/>
<path opacity="0.5" d="M389.584 410.643C390.501 406.284 391.455 401.934 392.446 397.591L419.08 403.667C418.124 407.857 417.203 412.055 416.319 416.261L389.584 410.643Z" fill="black"/>
<path opacity="0.5" d="M406.042 373.897C407.169 369.633 408.333 365.378 409.533 361.133L428.566 366.51C427.397 370.646 426.264 374.792 425.166 378.947L406.042 373.897Z" fill="black"/>
<path opacity="0.5" d="M312.375 303.333C313.906 298.532 315.478 293.745 317.091 288.971L439.764 330.398C438.388 334.47 437.047 338.553 435.742 342.648L312.375 303.333Z" fill="black"/>
<path opacity="0.5" d="M430.09 311.931C431.571 307.804 433.088 303.69 434.64 299.589L448.868 304.971C447.347 308.99 445.86 313.023 444.408 317.068L430.09 311.931Z" fill="black"/>
<path opacity="0.5" d="M468.363 212.9C470.411 208.992 472.493 205.102 474.609 201.229L492.154 210.808C490.094 214.58 488.066 218.369 486.071 222.176L468.363 212.9Z" fill="black"/>
</g>
<defs>
<linearGradient id="paint0_linear" x1="1150" y1="0" x2="1150" y2="750" gradientUnits="userSpaceOnUse">
<stop stop-color="#495E64"/>
<stop offset="1" stop-color="#1C2D30"/>
</linearGradient>
<linearGradient id="paint1_linear" x1="1150" y1="0" x2="1150" y2="751" gradientUnits="userSpaceOnUse">
<stop stop-color="#495E64"/>
<stop offset="1" stop-color="#1C2D30"/>
</linearGradient>
</defs>
</svg>
