<svg width="64" height="64" viewBox="0 0 64 64" fill="none" xmlns="http://www.w3.org/2000/svg">
<path d="M64 32C64 14.3272 49.6727 0 32 0C14.3272 0 0 14.3272 0 32C0 49.6727 14.3272 64 32 64C49.6727 64 64 49.6727 64 32ZM14.7695 43.3716C15.3291 43.4428 15.8926 43.4787 16.4568 43.4792C19.7702 43.4851 22.8189 42.2894 25.2364 40.2821C22.1411 40.2095 19.5317 38.0219 18.6328 35.0196C19.0633 35.1098 19.5085 35.1621 19.9622 35.1652C20.5917 35.1689 21.2185 35.0837 21.8241 34.912C18.5892 34.1964 16.1514 31.1273 16.1514 27.4705V27.3745C17.1056 27.9505 18.1936 28.2996 19.3542 28.352C17.4605 26.9818 16.2125 24.6545 16.2125 22.0363C16.2125 20.6516 16.5616 19.3599 17.1696 18.2544C20.6576 22.8654 25.8677 25.9256 31.7412 26.3067C31.619 25.757 31.5579 25.1838 31.5579 24.5991C31.5579 20.4653 34.723 17.1664 38.627 17.2304C40.6604 17.2654 42.4989 18.1991 43.7878 19.6654C45.3994 19.357 46.9121 18.7635 48.2765 17.9344C47.75 19.6595 46.6271 21.0966 45.1667 21.9955C46.5981 21.8355 47.9594 21.4574 49.2278 20.8843C48.2795 22.3592 47.0809 23.6479 45.6991 24.6778C45.7137 24.9978 45.7194 25.3178 45.7194 25.6378C45.7194 35.4531 38.6066 46.7723 25.603 46.7664C21.6145 46.7694 17.8968 45.5185 14.7695 43.3716Z" fill="#A39D1F"/>
</svg>
