<?xml version="1.0" standalone="no"?>
<!DOCTYPE svg PUBLIC "-//W3C//DTD SVG 20010904//EN"
 "http://www.w3.org/TR/2001/REC-SVG-20010904/DTD/svg10.dtd">
<svg version="1.0" xmlns="http://www.w3.org/2000/svg"
 width="1600.000000pt" height="1600.000000pt" viewBox="0 0 1600.000000 1600.000000"
 preserveAspectRatio="xMidYMid meet">
<metadata>
Created by potrace 1.11, written by Peter Selinger 2001-2013
</metadata>
<g transform="translate(0.000000,1600.000000) scale(0.100000,-0.100000)"
fill="#000000" stroke="none">
<path d="M12938 11794 c-2 -1 -42 -5 -88 -8 -100 -7 -195 -16 -230 -22 -14 -2
-44 -7 -66 -10 -48 -5 -78 -11 -102 -18 -9 -3 -34 -7 -54 -10 -41 -6 -328 -80
-396 -101 -7 -3 -14 -5 -17 -5 -23 -2 -246 -89 -319 -124 -50 -24 -109 -52
-131 -61 -176 -73 -348 -204 -471 -360 -21 -27 -41 -52 -44 -55 -20 -19 -69
-89 -74 -107 -4 -12 -27 -57 -51 -100 -40 -71 -99 -213 -89 -213 3 0 0 -8 -5
-18 -6 -11 -13 -31 -16 -45 -3 -15 -7 -38 -10 -52 -27 -130 14 -303 98 -414
53 -69 188 -201 206 -201 6 0 11 -4 11 -8 0 -7 160 -93 180 -98 3 0 19 -6 35
-13 17 -7 44 -14 62 -17 30 -3 34 0 64 54 18 31 35 59 39 62 12 10 110 171
110 180 0 6 5 10 10 10 6 0 10 5 10 12 0 13 64 99 107 144 72 74 261 224 283
224 5 0 10 5 10 10 0 6 5 10 11 10 6 0 23 9 38 19 58 41 301 153 361 166 8 2
42 11 75 19 57 16 105 25 151 31 11 1 25 4 30 7 5 4 43 9 84 13 41 3 91 8 110
11 53 6 389 7 435 0 22 -3 69 -8 105 -12 36 -3 74 -8 85 -10 20 -4 153 -31
190 -38 62 -13 197 -73 290 -129 11 -6 43 -25 70 -41 148 -87 292 -229 387
-381 44 -71 89 -155 82 -155 -3 0 0 -10 8 -22 22 -35 71 -170 82 -228 3 -14 7
-36 10 -50 17 -75 22 -281 10 -405 -3 -38 -7 -83 -9 -100 -1 -16 -4 -30 -5
-30 -1 0 -4 -16 -6 -35 -12 -88 -63 -262 -115 -385 -7 -16 -13 -32 -14 -35 -5
-22 -100 -194 -129 -235 -12 -16 -25 -37 -31 -47 -56 -96 -182 -277 -209 -303
-6 -6 -26 -30 -45 -55 -120 -156 -631 -670 -901 -906 -24 -21 -54 -49 -66 -61
-12 -13 -25 -23 -29 -23 -4 0 -13 -6 -19 -14 -6 -7 -70 -60 -142 -117 -140
-112 -159 -126 -244 -188 -30 -22 -59 -44 -65 -49 -5 -4 -28 -21 -50 -37 -22
-17 -46 -35 -55 -42 -8 -7 -100 -76 -205 -154 -233 -173 -231 -172 -279 -209
-21 -16 -42 -30 -45 -30 -3 0 -19 -12 -36 -26 -16 -14 -82 -62 -145 -107 -63
-45 -117 -84 -120 -87 -3 -4 -32 -26 -65 -49 -33 -23 -86 -61 -119 -84 -32
-23 -66 -46 -75 -52 -9 -5 -23 -16 -31 -23 -38 -33 -110 -82 -119 -82 -6 0
-11 -4 -11 -8 0 -6 -40 -39 -165 -134 -5 -4 -23 -18 -40 -31 -16 -13 -82 -58
-146 -100 l-116 -78 0 -559 0 -560 2619 0 2618 0 0 559 0 559 -58 1 c-33 0
-63 1 -68 2 -5 1 -13 0 -19 -1 -10 -2 -128 -1 -143 1 -4 1 -11 1 -17 0 -8 -2
-74 -2 -170 0 -5 0 -48 0 -95 -1 -47 -1 -90 -1 -95 0 -6 1 -14 2 -20 1 -13 -2
-391 -2 -402 0 -4 1 -12 0 -18 -1 -10 -2 -128 -1 -143 1 -4 1 -11 1 -17 0 -5
-2 -55 -2 -110 -1 -55 1 -107 1 -115 1 -76 -1 -549 -2 -556 0 -5 1 -13 0 -19
-1 -10 -2 -128 -1 -143 1 -4 1 -11 1 -17 0 -8 -2 -74 -2 -170 0 -5 0 -48 0
-95 -1 -47 -1 -90 -1 -95 0 -6 1 -14 2 -20 1 -13 -2 -391 -2 -402 0 -4 1 -12
0 -18 -1 -9 -2 -34 -2 -110 0 -16 0 -64 -1 -107 -2 -42 -2 -74 1 -71 5 3 5 40
31 82 58 42 27 81 52 86 57 6 4 26 18 45 32 19 13 37 27 40 30 3 3 23 17 45
32 22 15 58 43 80 63 22 19 43 35 47 35 4 0 15 8 25 18 10 10 59 47 108 82 50
36 97 70 105 77 149 119 265 214 345 284 55 47 111 94 124 105 12 10 36 30 51
44 33 30 43 37 140 115 41 33 86 70 100 81 158 135 209 180 295 260 55 51 109
101 121 111 193 166 523 498 616 618 12 17 27 35 33 41 6 7 36 44 66 83 29 39
57 71 61 71 5 0 8 7 8 15 0 9 7 18 15 21 8 4 12 10 9 15 -3 5 0 9 5 9 6 0 11
4 11 10 0 5 29 54 65 109 36 55 65 105 65 111 0 5 5 10 10 10 6 0 10 5 10 11
0 6 8 23 18 37 41 59 158 286 177 342 1 3 11 27 23 53 12 27 22 53 22 58 0 5
5 9 11 9 5 0 8 4 5 8 -2 4 4 27 15 51 10 24 19 47 19 51 0 5 5 21 12 37 6 15
12 33 13 38 2 6 15 48 30 95 15 47 29 96 31 110 3 14 10 43 16 65 11 45 17 69
23 105 26 150 34 205 40 265 3 38 8 72 11 76 2 4 0 10 -6 14 -6 4 -7 13 -2 23
10 18 8 313 -2 422 -22 232 -70 431 -147 595 -17 39 -33 76 -35 84 -1 8 -8 17
-14 21 -7 4 -11 10 -11 14 1 10 -43 101 -51 104 -5 2 -8 8 -8 12 0 14 -91 162
-117 190 -13 14 -23 28 -23 31 0 12 -113 145 -184 214 -80 80 -176 162 -221
191 -16 10 -32 21 -35 24 -11 12 -90 60 -99 60 -5 0 -14 7 -22 16 -10 12 -327
175 -349 179 -3 1 -18 7 -35 15 -225 99 -327 130 -610 186 -40 8 -131 23 -170
29 -23 3 -51 7 -64 10 -13 2 -58 7 -100 11 -42 3 -89 8 -106 11 -32 6 -612 12
-617 7z"/>
<path d="M8367 11654 c-1 -1 -27 -5 -57 -8 -57 -5 -116 -13 -160 -22 -14 -3
-34 -6 -45 -8 -11 -1 -24 -4 -30 -7 -5 -4 -28 -10 -50 -14 -45 -9 -54 -12 -57
-15 -2 -1 -10 -3 -18 -5 -121 -31 -330 -111 -382 -147 -14 -10 -28 -18 -31
-18 -3 0 -36 -17 -74 -39 -37 -21 -88 -49 -113 -63 -25 -14 -63 -36 -85 -48
-22 -13 -58 -33 -80 -44 -22 -12 -42 -23 -45 -26 -10 -10 -65 -41 -82 -47 -10
-3 -18 -9 -18 -14 0 -5 -4 -9 -10 -9 -8 0 -65 -35 -95 -57 -5 -5 -41 -28 -80
-53 -38 -24 -72 -47 -75 -50 -3 -3 -41 -32 -85 -65 -44 -33 -86 -67 -95 -75
-8 -8 -47 -40 -85 -70 -62 -49 -103 -82 -139 -115 -6 -5 -45 -39 -86 -75 -41
-36 -84 -74 -96 -85 -11 -11 -60 -56 -108 -100 -122 -111 -353 -342 -402 -401
-23 -27 -54 -62 -68 -79 -15 -16 -53 -61 -84 -100 -31 -38 -59 -72 -62 -75 -3
-3 -21 -25 -40 -50 -19 -25 -40 -49 -46 -55 -6 -5 -69 -86 -138 -180 -70 -93
-134 -178 -142 -188 -8 -9 -14 -20 -14 -23 0 -3 -19 -31 -43 -62 -59 -78 -74
-101 -184 -274 -40 -63 -73 -120 -73 -126 0 -7 -4 -12 -8 -12 -4 0 -21 -26
-37 -57 -16 -32 -33 -61 -39 -65 -6 -4 -7 -8 -3 -8 5 0 0 -12 -10 -27 -27 -40
-143 -282 -183 -383 -10 -25 -28 -67 -41 -95 -12 -27 -23 -54 -25 -60 -1 -5
-8 -23 -15 -40 -7 -16 -13 -32 -14 -35 0 -3 -12 -36 -25 -75 -13 -38 -25 -74
-26 -80 -2 -10 -32 -108 -41 -135 -3 -8 -7 -26 -9 -40 -1 -14 -6 -36 -9 -50
-10 -37 -33 -168 -41 -225 -3 -27 -8 -63 -10 -80 -9 -64 -10 -338 -2 -398 13
-97 17 -121 22 -142 31 -148 118 -331 195 -412 12 -13 20 -23 17 -23 -7 0 91
-90 145 -133 45 -36 253 -140 304 -152 6 -2 37 -12 70 -23 95 -32 172 -52 280
-73 117 -23 145 -27 310 -45 17 -2 93 -6 170 -9 77 -3 158 -7 180 -8 22 -1 52
1 68 5 15 3 27 4 27 0 0 -4 75 -6 167 -4 93 1 175 2 183 2 8 0 33 0 55 -1 22
-1 45 0 50 1 6 1 12 2 15 1 3 -1 79 -2 170 -1 176 1 184 1 245 -1 22 -1 45 0
50 1 6 1 12 2 15 1 3 -1 79 -2 170 -1 176 1 184 1 245 -1 22 -1 45 0 50 1 6 1
12 2 15 1 13 -5 342 -3 346 2 3 3 19 1 36 -4 20 -5 36 -5 43 1 7 5 14 7 17 5
3 -3 26 -6 52 -7 26 0 46 -5 47 -12 1 -6 2 -72 4 -146 1 -74 6 -281 10 -460 4
-179 8 -404 9 -501 2 -97 5 -180 8 -185 3 -5 2 -18 -2 -29 -4 -11 -4 -29 -1
-40 4 -11 6 -73 6 -137 l0 -118 35 0 c260 -4 1161 -1 1168 4 6 3 9 307 9 791
0 432 3 788 6 792 4 3 2 14 -3 24 -9 16 -5 18 48 17 31 0 62 1 67 2 6 1 12 2
15 1 3 -1 79 -2 170 -1 176 1 184 1 245 -1 22 -1 45 0 50 1 6 1 15 1 20 0 10
-2 74 -1 156 1 l46 1 36 71 c33 66 85 214 92 262 1 11 8 52 15 90 27 163 4
373 -50 447 -11 15 -20 31 -20 36 0 18 -95 102 -148 130 -44 23 -154 63 -169
62 -2 0 -4 0 -5 1 -20 6 -197 21 -240 20 -16 -1 -36 -1 -45 -1 -10 0 -34 0
-53 -1 -19 -1 -44 -1 -55 0 -11 0 -42 1 -70 1 -91 0 -98 0 -103 5 -2 2 -4
1012 -4 2244 0 1987 -2 2241 -15 2241 -18 0 -131 48 -153 65 -30 23 -205 66
-325 80 -101 12 -391 26 -398 19z m-355 -2936 c0 -920 -1 -1683 -1 -1696 -1
-20 -6 -23 -43 -22 -24 0 -50 0 -58 0 -8 -1 -44 -1 -80 -1 -36 1 -72 1 -80 1
-8 -1 -35 0 -60 0 -25 0 -54 0 -65 0 -11 0 -36 0 -55 -1 -19 -1 -44 -1 -55 0
-11 0 -42 1 -70 1 -27 0 -57 0 -65 0 -8 0 -31 0 -50 -1 -19 -1 -44 -1 -55 0
-11 0 -42 1 -70 1 -27 0 -57 0 -65 0 -8 0 -31 0 -50 -1 -19 -1 -44 -1 -55 0
-11 0 -42 1 -70 1 -27 0 -57 0 -65 0 -8 0 -31 0 -50 -1 -19 -1 -44 -1 -55 0
-11 0 -42 1 -70 1 -27 0 -57 0 -65 0 -8 0 -31 0 -50 -1 -19 -1 -44 -1 -55 0
-11 0 -42 1 -70 1 -63 0 -93 1 -127 4 -16 1 -28 -1 -28 -6 0 -4 -6 -5 -12 -3
-7 3 -69 7 -138 10 -134 5 -187 9 -253 20 -148 25 -249 55 -290 87 -82 65
-117 172 -112 345 4 133 23 231 71 371 33 99 139 327 200 432 26 44 161 255
176 275 16 20 94 126 133 179 22 30 43 55 48 56 4 0 7 5 7 11 0 6 6 16 13 23
6 7 26 30 42 51 17 20 35 42 40 49 6 6 39 46 75 89 36 43 79 93 95 111 17 18
64 70 105 116 149 165 432 438 565 545 20 17 47 38 59 49 11 10 37 30 56 45
19 14 38 30 42 36 4 5 8 6 8 2 0 -5 6 -2 14 5 28 27 66 58 72 58 4 0 21 12 39
28 43 35 67 52 190 134 55 37 105 71 110 76 6 4 26 17 45 28 19 10 37 22 40
25 3 3 39 25 80 50 41 24 77 47 78 51 2 5 10 8 17 8 7 0 23 9 36 19 13 11 26
17 28 15 2 -2 4 -756 3 -1676z"/>
<path d="M2048 9815 c-1 -1 -39 -6 -83 -9 -100 -8 -152 -14 -235 -27 -36 -6
-76 -12 -90 -14 -14 -2 -57 -11 -95 -20 -39 -9 -81 -19 -94 -21 -14 -3 -28 -7
-33 -10 -4 -3 -16 -7 -25 -9 -76 -16 -237 -78 -383 -149 -54 -26 -247 -146
-284 -177 -6 -5 -21 -17 -33 -27 -164 -135 -373 -360 -373 -401 0 -6 -4 -11
-9 -11 -6 0 -16 -11 -23 -25 -7 -13 -26 -50 -43 -82 -16 -32 -34 -61 -38 -64
-5 -3 -9 -12 -11 -20 -1 -8 -10 -32 -20 -54 -51 -116 -110 -308 -131 -430 -3
-16 -8 -43 -11 -60 -3 -16 -7 -48 -9 -70 -3 -22 -8 -69 -12 -105 -4 -36 -7
-517 -6 -1070 2 -1379 14 -2138 39 -2520 3 -47 5 -94 5 -104 0 -11 4 -27 9
-36 8 -15 59 -17 610 -17 659 0 627 -3 610 59 -5 15 -5 30 0 33 5 3 7 12 4 20
-9 22 -10 136 -1 142 4 2 4 9 0 16 -10 16 -10 57 0 57 4 0 5 5 2 11 -11 16
-12 69 -3 69 5 0 5 8 -1 17 -5 10 -5 26 -1 39 5 12 7 24 4 27 -9 8 -10 78 -2
83 5 3 5 10 1 17 -10 16 -10 57 0 57 4 0 5 5 2 11 -11 16 -12 69 -3 69 5 0 5
8 -1 17 -5 10 -5 26 -1 39 5 12 7 24 4 27 -9 8 -10 78 -2 83 5 3 5 10 1 17
-10 16 -10 57 0 57 4 0 5 5 2 11 -11 16 -12 69 -3 69 5 0 5 8 -1 17 -5 10 -5
26 -1 39 5 12 7 24 4 27 -9 8 -10 78 -2 83 5 3 5 10 1 17 -10 16 -10 57 0 57
4 0 5 5 2 11 -11 16 -12 69 -3 69 5 0 4 8 -1 19 -6 10 -8 21 -5 24 8 7 9 95 2
102 -3 4 -2 20 2 36 5 16 5 31 1 33 -8 5 -5 81 4 96 3 6 2 10 -2 10 -10 0 -10
41 0 57 4 7 3 14 -2 17 -6 4 -6 18 -1 36 5 17 6 30 2 30 -6 0 -7 56 -2 70 1 3
1 10 0 15 -6 29 -5 65 2 65 5 0 5 8 -1 17 -5 10 -5 26 -1 39 5 12 6 25 3 28
-8 8 -8 110 0 123 4 6 4 13 0 17 -9 9 -10 56 -2 56 4 0 4 13 -1 30 -5 18 -5
32 1 36 5 3 6 12 0 21 -5 9 -5 28 -1 42 4 14 4 35 0 46 -4 11 -3 28 2 38 5 9
5 17 1 17 -4 0 -8 16 -8 35 0 19 4 35 8 35 5 0 5 4 2 10 -9 15 -12 90 -2 90 4
0 4 8 -1 18 -5 9 -6 26 -2 37 4 11 4 34 -1 52 -4 18 -3 33 2 33 5 0 5 10 0 23
-5 12 -5 32 0 45 5 12 5 22 1 22 -8 0 -8 87 1 96 3 3 2 16 -3 28 -4 13 -4 29
0 36 5 8 6 18 3 24 -8 12 -10 66 -3 66 3 0 5 14 5 30 0 17 -4 30 -8 30 -5 0
-5 5 -1 12 4 6 8 34 9 62 3 81 20 231 25 231 1 0 3 11 5 25 1 14 8 48 15 75
17 71 21 89 23 100 2 6 5 15 8 20 10 16 33 90 28 90 -2 0 6 14 19 32 12 17 22
35 22 39 0 11 78 142 104 173 68 83 246 238 246 214 0 -4 4 -3 8 3 12 18 126
73 202 97 120 39 161 48 281 63 24 3 58 7 74 9 99 13 405 2 550 -20 17 -2 48
-7 70 -10 89 -13 190 -37 202 -47 7 -6 13 -8 13 -4 0 4 13 0 30 -9 16 -8 31
-15 32 -15 4 2 39 -10 63 -20 11 -5 39 -14 63 -21 23 -7 42 -17 42 -22 0 -6 3
-8 6 -4 3 3 37 -8 74 -24 38 -16 77 -29 87 -29 11 0 40 31 73 75 147 199 189
309 184 477 -3 93 -5 106 -18 143 -35 93 -49 125 -56 125 -5 0 -12 10 -15 21
-9 27 -153 169 -171 169 -8 0 -14 5 -14 10 0 6 -7 10 -15 10 -8 0 -15 5 -15
10 0 6 -7 10 -15 10 -8 0 -15 3 -15 8 0 15 -221 115 -282 127 -9 2 -26 8 -37
14 -11 6 -30 11 -44 11 -13 0 -27 3 -31 8 -4 4 -12 8 -17 8 -5 1 -10 2 -11 4
-10 7 -303 60 -363 65 -27 2 -50 4 -50 5 0 9 -607 24 -617 15z"/>
</g>
</svg>
